<svg width="231" height="208" viewBox="0 0 231 208" fill="none" xmlns="http://www.w3.org/2000/svg">
<g filter="url(#filter0_d_512_172)">
<rect x="59.3279" y="172.68" width="45.4426" height="26.7531" rx="13.3765" fill="#D9D9D9"/>
<path d="M6.31152 95.3608C6.31152 87.6922 12.5282 81.4756 20.1968 81.4756C27.8654 81.4756 34.082 87.6922 34.082 95.3608V111.368C34.082 119.037 27.8654 125.253 20.1968 125.253C12.5282 125.253 6.31152 119.037 6.31152 111.368L6.31152 95.3608Z" fill="#D9D9D9"/>
<rect x="196.918" y="81.4756" width="27.7705" height="43.7778" rx="13.8852" fill="#D9D9D9"/>
<rect x="126.229" y="172.68" width="45.4426" height="26.7531" rx="13.3765" fill="#D9D9D9"/>
<rect x="37.8689" width="155.262" height="149.574" rx="15" fill="#D9D9D9"/>
<rect x="56.8033" y="18.2412" width="117.393" height="113.093" rx="5" fill="#0060FF"/>
<rect x="82.0492" y="46.21" width="13.8852" height="27.9691" rx="6.94262" fill="#D9D9D9"/>
<rect x="135.066" y="46.21" width="13.8853" height="27.9691" rx="6.94263" fill="#D9D9D9"/>
<path d="M99.7213 104.58H131.279" stroke="white" stroke-width="5" stroke-linecap="round"/>
</g>
<defs>
<filter id="filter0_d_512_172" x="-4" y="0" width="239" height="207.433" filterUnits="userSpaceOnUse" color-interpolation-filters="sRGB">
<feFlood flood-opacity="0" result="BackgroundImageFix"/>
<feColorMatrix in="SourceAlpha" type="matrix" values="0 0 0 0 0 0 0 0 0 0 0 0 0 0 0 0 0 0 127 0" result="hardAlpha"/>
<feOffset dy="4"/>
<feGaussianBlur stdDeviation="2"/>
<feComposite in2="hardAlpha" operator="out"/>
<feColorMatrix type="matrix" values="0 0 0 0 0 0 0 0 0 0 0 0 0 0 0 0 0 0 0.25 0"/>
<feBlend mode="normal" in2="BackgroundImageFix" result="effect1_dropShadow_512_172"/>
<feBlend mode="normal" in="SourceGraphic" in2="effect1_dropShadow_512_172" result="shape"/>
</filter>
</defs>
</svg>
