<svg width="81" height="77" viewBox="0 0 81 77" fill="none" xmlns="http://www.w3.org/2000/svg">
<path d="M38.1731 2.87978C41.2645 1.09743 45.0713 1.09744 48.1627 2.87978L70.9263 16.0042C74.0232 17.7897 75.9315 21.0926 75.9315 24.6674V50.8923C75.9315 54.4671 74.0232 57.77 70.9263 59.5556L48.1627 72.68C45.0713 74.4623 41.2645 74.4623 38.1731 72.68L15.4095 59.5556C12.3126 57.77 10.4043 54.4671 10.4043 50.8923V24.6674C10.4043 21.0926 12.3126 17.7897 15.4095 16.0042L38.1731 2.87978Z" fill="#D5D5D5"/>
<line y1="-0.5" x2="37.9431" y2="-0.5" transform="matrix(0.86472 0.502255 -0.503293 0.864116 10.3578 18.7227)" stroke="black"/>
<line y1="-0.5" x2="37.9431" y2="-0.5" transform="matrix(0.864752 -0.502199 0.503237 0.864148 43.1679 37.7773)" stroke="black"/>
<line y1="-0.5" x2="37.1127" y2="-0.5" transform="matrix(0.00902108 -0.999959 0.99996 0.00899622 42.8331 74.8906)" stroke="black"/>
<path d="M13.0935 31.5419C13.1307 28.4952 16.4295 26.6102 19.0787 28.1219L37.1173 38.4151C38.3806 39.1359 39.1534 40.4846 39.1356 41.9375L38.8824 62.683C38.8452 65.7298 35.5464 67.6148 32.8972 66.1031L14.8586 55.8099C13.5953 55.089 12.8225 53.7404 12.8403 52.2875L13.0935 31.5419Z" fill="#0060FF"/>
<path d="M19.3973 52.1562L26.6553 56.319" stroke="#D5D5D5" stroke-width="5" stroke-linecap="round"/>
<rect x="17.0537" y="35.7734" width="3.68277" height="7.68971" rx="1.84138" fill="#D5D5D5"/>
<rect x="28.102" y="41.458" width="3.68277" height="7.68971" rx="1.84139" fill="#D5D5D5"/>
</svg>
